<?xml version="1.0" standalone="no"?><!DOCTYPE svg PUBLIC "-//W3C//DTD SVG 1.1//EN" "http://www.w3.org/Graphics/SVG/1.1/DTD/svg11.dtd"><svg t="1552284518908" class="icon" style="" viewBox="0 0 1024 1024" version="1.1" xmlns="http://www.w3.org/2000/svg" p-id="3416" xmlns:xlink="http://www.w3.org/1999/xlink" width="32" height="32"><defs><style type="text/css"></style></defs><path d="M896 512h64c0 247.296-200.704 448-448 448S64 759.296 64 512 264.704 64 512 64V128c-211.968 0-384 172.032-384 384s172.032 384 384 384 384-172.032 384-384z" fill="" p-id="3417"></path><path d="M640 608.256v-64h-108.544l107.008-107.52-45.568-44.544-112.128 111.616-112.64-111.616-45.568 45.568 107.008 106.496H320v64h129.024v31.744H320v64h129.024v96.256h64v-96.256H640V640h-126.976v-31.744zM685.056 386.56l135.68-136.192 109.568 109.568 2.56-268.8-268.8 2.56 111.104 112.128-136.192 135.68z" fill="" p-id="3418"></path></svg>