<?xml version="1.0" standalone="no"?><!DOCTYPE svg PUBLIC "-//W3C//DTD SVG 1.1//EN" "http://www.w3.org/Graphics/SVG/1.1/DTD/svg11.dtd"><svg t="1552276492021" class="icon" style="" viewBox="0 0 1024 1024" version="1.1" xmlns="http://www.w3.org/2000/svg" p-id="1678" xmlns:xlink="http://www.w3.org/1999/xlink" width="32" height="32"><defs><style type="text/css"></style></defs><path d="M512 0C230.4 0 0 230.4 0 512s230.4 512 512 512 512-230.4 512-512S793.6 0 512 0z m0 981.333333C253.866667 981.333333 42.666667 770.133333 42.666667 512S253.866667 42.666667 512 42.666667s469.333333 211.2 469.333333 469.333333-211.2 469.333333-469.333333 469.333333z" p-id="1679"></path><path d="M682.666667 337.066667c-4.266667-27.733333-19.2-42.666667-44.8-44.8-14.933333 2.133333-27.733333 8.533333-36.266667 19.2l-89.6 128-89.6-128c-8.533333-10.666667-19.2-17.066667-36.266667-19.2-27.733333 4.266667-42.666667 19.2-44.8 44.8 0 8.533333 2.133333 19.2 8.533334 25.6l76.8 108.8h-51.2c-17.066667 2.133333-27.733333 10.666667-27.733334 25.6 2.133333 14.933333 10.666667 25.6 27.733334 25.6h89.6v40.533333h-89.6c-17.066667 2.133333-27.733333 10.666667-27.733334 25.6 2.133333 14.933333 10.666667 25.6 27.733334 25.6h89.6v74.666667c2.133333 27.733333 17.066667 40.533333 44.8 40.533333s44.8-12.8 44.8-40.533333v-74.666667h89.6c17.066667-2.133333 27.733333-10.666667 27.733333-25.6-2.133333-14.933333-10.666667-25.6-27.733333-25.6H554.666667v-40.533333h89.6c17.066667-2.133333 27.733333-10.666667 27.733333-25.6-2.133333-14.933333-10.666667-25.6-27.733333-25.6h-51.2l76.8-108.8c8.533333-6.4 12.8-17.066667 12.8-25.6z" p-id="1680"></path></svg>