<?xml version="1.0" standalone="no"?><!DOCTYPE svg PUBLIC "-//W3C//DTD SVG 1.1//EN" "http://www.w3.org/Graphics/SVG/1.1/DTD/svg11.dtd"><svg t="1552285768121" class="icon" style="" viewBox="0 0 1030 1024" version="1.1" xmlns="http://www.w3.org/2000/svg" p-id="28110" xmlns:xlink="http://www.w3.org/1999/xlink" width="32.1875" height="32"><defs><style type="text/css"></style></defs><path d="M1028.896135 606.884728a32.149317 32.149317 0 0 0-30.43862-21.767152h-141.574976V64.416614A64.475603 64.475603 0 0 0 792.465925 0H236.489199a64.475603 64.475603 0 0 0-64.357625 64.416614v520.700962H32.208307a32.208307 32.208307 0 0 0-19.702517 57.632813l482.18077 374.46581a32.326286 32.326286 0 0 0 39.464025 0l484.186416-374.46581a32.031338 32.031338 0 0 0 10.559134-35.865661z m-356.002074-35.039806a32.208307 32.208307 0 1 1 0 64.416614H559.339132v87.363558a32.267297 32.267297 0 0 1-32.208306 32.208307 32.208307 32.208307 0 0 1-32.267297-32.208307v-87.481537H381.308601a32.208307 32.208307 0 0 1 0-64.357625h113.672907v-48.725387H381.249611a32.444265 32.444265 0 0 1 0-64.88853h83.411257L377.415289 354.468345a32.208307 32.208307 0 0 1 49.315283-41.292701l102.641857 122.285385 102.641858-122.285385a32.208307 32.208307 0 1 1 49.315283 41.292701l-87.304569 103.998617h78.86906a32.208307 32.208307 0 1 1 0 64.416614H559.516101v48.961346z" p-id="28111"></path></svg>